<!-- Generated by IcoMoon.io -->
<svg version="1.1" xmlns="http://www.w3.org/2000/svg" width="14" height="20" viewBox="0 0 14 20">
<title>pinterest-p</title>
<path d="M0 6.663c0-4.118 3.772-6.663 7.589-6.663 3.504 0 6.696 2.411 6.696 6.105 0 3.471-1.775 7.321-5.725 7.321-0.938 0-2.121-0.469-2.578-1.339-0.848 3.359-0.781 3.862-2.656 6.429l-0.156 0.056-0.1-0.112c-0.067-0.703-0.167-1.395-0.167-2.098 0-2.277 1.049-5.569 1.563-7.779-0.279-0.569-0.357-1.261-0.357-1.886 0-1.127 0.781-2.556 2.054-2.556 0.938 0 1.44 0.714 1.44 1.596 0 1.451-0.982 2.813-0.982 4.219 0 0.96 0.792 1.629 1.719 1.629 2.567 0 3.359-3.705 3.359-5.681 0-2.645-1.875-4.085-4.408-4.085-2.946 0-5.223 2.121-5.223 5.112 0 1.44 0.882 2.176 0.882 2.522 0 0.29-0.212 1.317-0.58 1.317-0.056 0-0.134-0.022-0.19-0.033-1.596-0.48-2.176-2.612-2.176-4.074z"></path>
</svg>
