<!-- Generated by IcoMoon.io -->
<svg version="1.1" xmlns="http://www.w3.org/2000/svg" width="19" height="20" viewBox="0 0 19 20">
<title>shopping-cart</title>
<path d="M7.143 17.143c0 0.781-0.647 1.429-1.429 1.429s-1.429-0.647-1.429-1.429 0.647-1.429 1.429-1.429 1.429 0.647 1.429 1.429zM17.143 17.143c0 0.781-0.647 1.429-1.429 1.429s-1.429-0.647-1.429-1.429 0.647-1.429 1.429-1.429 1.429 0.647 1.429 1.429zM18.571 5v5.714c0 0.357-0.279 0.67-0.636 0.714l-11.652 1.362c0.056 0.257 0.145 0.513 0.145 0.781 0 0.257-0.156 0.491-0.268 0.714h10.268c0.391 0 0.714 0.324 0.714 0.714s-0.324 0.714-0.714 0.714h-11.429c-0.391 0-0.714-0.324-0.714-0.714 0-0.346 0.502-1.183 0.681-1.529l-1.975-9.185h-2.277c-0.391 0-0.714-0.324-0.714-0.714s0.324-0.714 0.714-0.714h2.857c0.748 0 0.77 0.893 0.882 1.429h13.404c0.391 0 0.714 0.324 0.714 0.714z"></path>
</svg>
